<?xml version="1.0"?>
<svg xmlns="http://www.w3.org/2000/svg" xmlns:lc="https://librecad.org" xmlns:xlink="http://www.w3.org/1999/xlink" width="300cm" height="135.35533906cm" viewBox="0 0 300 135.35533906">
    <g lc:layername="0" lc:is_locked="false" lc:is_construction="false" fill="none" stroke="black" stroke-width="1">
        <line x1="100" y1="100" x2="100" y2="0"/>
        <line x1="100" y1="100" x2="200" y2="100"/>
        <line x1="100" y1="100" x2="0" y2="100"/>
        <line x1="200" y1="100" x2="300" y2="0"/>
        <line x1="0" y1="100" x2="100" y2="0"/>
        <line x1="100" y1="100" x2="85.85786438" y2="114.14213562"/>
        <line x1="85.85786438" y1="114.14213562" x2="100" y2="128.28427125"/>
        <line x1="100" y1="128.28427125" x2="120" y2="128.28427125"/>
        <line x1="100" y1="128.28427125" x2="80" y2="128.28427125"/>
        <line x1="85.85786438" y1="114.14213562" x2="71.71572875" y2="100"/>
        <line x1="71.71572875" y1="100" x2="92.92893219" y2="78.78679656"/>
        <line x1="92.92893219" y1="78.78679656" x2="71.71572875" y2="57.57359313"/>
        <line x1="92.92893219" y1="78.78679656" x2="114.14213562" y2="100"/>
        <line x1="71.71572875" y1="100" x2="36.36038969" y2="135.35533906"/>
        <line x1="36.36038969" y1="135.35533906" x2="1.00505063" y2="100"/>
        <line x1="86" y1="114" x2="86" y2="135"/>
        <line x1="86" y1="135" x2="36" y2="135"/>
    </g>
</svg>
