<?xml version="1.0"?>
<svg xmlns="http://www.w3.org/2000/svg" xmlns:lc="https://librecad.org" xmlns:xlink="http://www.w3.org/1999/xlink" width="39.6cm" height="22.1421cm" viewBox="0 0 39.6 22.1421">
    <g lc:layername="0" lc:is_locked="false" lc:is_construction="false" fill="none" stroke="black" stroke-width="1">
        <line x1="17" y1="8" x2="31.14213" y2="8"/>
        <line x1="17" y1="8" x2="9.92893219" y2="0.92893219"/>
        <line x1="17" y1="8" x2="24.07106781" y2="0.92893219"/>
        <line x1="31" y1="8" x2="23.92893219" y2="0.92893219"/>
        <line x1="31" y1="8" x2="38.07106781" y2="0.92893219"/>
        <line x1="10" y1="1" x2="24.1421" y2="1"/>
        <line x1="24.1421" y1="1" x2="38.2841" y2="1"/>
        <line x1="10" y1="1" x2="0.00002519" y2="10.99997481"/>
        <line x1="17" y1="8" x2="17" y2="22.1421"/>
        <line x1="38.2841" y1="1" x2="38.2841" y2="15.1421"/>
        <line x1="12" y1="0" x2="13" y2="1"/>
        <line x1="13" y1="1" x2="12" y2="2"/>
        <line x1="22" y1="0" x2="21" y2="1"/>
        <line x1="21" y1="1" x2="22" y2="2"/>
        <line x1="0" y1="9" x2="0.00002519" y2="10.99997481"/>
        <line x1="0.00002519" y1="10.99997481" x2="2" y2="11"/>
        <line x1="16" y1="21" x2="17" y2="22.1421"/>
        <line x1="17" y1="22.1421" x2="18" y2="21"/>
        <line x1="37" y1="14" x2="38.2841" y2="15.1421"/>
        <line x1="39.6" y1="14" x2="38.3" y2="15.1"/>
        <line x1="26" y1="0" x2="27" y2="1"/>
        <line x1="27" y1="1" x2="26" y2="2"/>
        <line x1="36" y1="0" x2="35" y2="1"/>
        <line x1="35" y1="1" x2="36" y2="2"/>
        <line x1="32" y1="6" x2="32" y2="7"/>
        <line x1="32" y1="7" x2="33" y2="7"/>
        <line x1="35" y1="3" x2="36" y2="3"/>
        <line x1="36" y1="3" x2="36" y2="4"/>
        <line x1="21" y1="7" x2="20" y2="8"/>
        <line x1="20" y1="8" x2="21" y2="9"/>
        <line x1="28" y1="7" x2="29" y2="8"/>
        <line x1="29" y1="8" x2="28" y2="9"/>
        <line x1="12" y1="4" x2="12" y2="3"/>
        <line x1="12" y1="3" x2="13" y2="3"/>
        <line x1="15" y1="7" x2="16" y2="7"/>
        <line x1="16" y1="7" x2="16" y2="6"/>
        <line x1="26" y1="4" x2="26" y2="3"/>
        <line x1="26" y1="3" x2="27" y2="3"/>
        <line x1="30" y1="6" x2="30" y2="7"/>
        <line x1="30" y1="7" x2="29" y2="7"/>
        <line x1="18" y1="6" x2="19" y2="6"/>
        <line x1="19" y1="6" x2="19" y2="7"/>
        <line x1="21" y1="3" x2="21" y2="4"/>
        <line x1="21" y1="4" x2="22" y2="4"/>
    </g>
</svg>
